<svg width="64" height="64" viewBox="0 0 64 64" fill="none" xmlns="http://www.w3.org/2000/svg">
<rect width="64" height="64" fill="#FDE8DF"/>
<path d="M50 16.7016L46.72 52.9581L31.9761 56.9913L17.2728 52.9637L13.9962 16.7016H50Z" fill="#E44D26"/>
<path d="M31.9981 53.9084L43.9119 50.6494L46.7148 19.6665H31.9981V53.9084Z" fill="#F16529"/>
<path d="M25.6218 28.5614H31.9981V24.114H20.6959L20.8037 25.3072L21.9116 37.563H31.9981V33.1156H26.0338L25.6218 28.5614V28.5614ZM26.6377 39.7868H22.113L22.7444 46.7699L31.9773 49.2988L31.9981 49.2932V44.666L31.9783 44.6712L26.9586 43.3338L26.6377 39.7868V39.7868Z" fill="#EBEBEB"/>
<path d="M17.3459 6.84707H19.6365V9.08003H21.7319V6.84707H24.0226V13.609H21.732V11.3447H19.6366V13.609H17.3461V6.84707H17.3459ZM27.0346 9.0895H25.0184V6.84707H31.343V9.0895H29.3255V13.609H27.035V9.0895H27.0348H27.0346ZM32.3467 6.84707H34.7351L36.2042 9.22304L37.672 6.84707H40.0613V13.609H37.7801V10.2574L36.2042 12.6617H36.1647L34.5879 10.2574V13.609H32.3467V6.84707ZM41.2012 6.84707H43.4925V11.374H46.7137V13.609H41.2011V6.84707H41.2012Z" fill="black"/>
<path d="M31.9826 37.563H37.5329L37.0095 43.331L31.9825 44.6698V49.2967L41.2227 46.7699L41.2905 46.0185L42.3498 34.3099L42.4597 33.1156H31.9826V37.563ZM31.9826 28.5506V28.5614H42.8698L42.9602 27.5619L43.1657 25.3072L43.2733 24.114H31.9826V28.5507V28.5506Z" fill="white"/>
</svg>
