<svg width="64" height="64" viewBox="0 0 64 64" fill="none" xmlns="http://www.w3.org/2000/svg">
<rect width="64" height="64" fill="#F0F8FB"/>
<path d="M41.3237 8.7558H38.4315L41.4399 12.0741V13.6522H35.2419V11.804H38.2503L35.2419 8.48578V6.90566H41.3257L41.3237 8.7558ZM34.0114 8.7558H31.1152L34.1276 12.0741V13.6522H27.9277V11.804H30.9361L27.9277 8.48578V6.90566H34.0114V8.7558ZM26.77 8.83181H23.6493V11.728H26.77V13.6542H21.4285V6.90566H26.77V8.83181Z" fill="#131313"/>
<path d="M17.1738 52.8913L14 16.7344H48.8684L45.6907 52.8853L31.4126 56.9057L17.1738 52.8913Z" fill="#1572B6"/>
<path d="M31.4342 53.8334L42.9717 50.5832L45.6848 19.6907H31.4342V53.8334Z" fill="#33A9DC"/>
<path d="M31.4342 32.7897H37.2108L37.6085 28.2494H31.4342V23.817H42.381L42.2767 25.0071L41.2037 37.228H31.4342V32.7897Z" fill="white"/>
<path d="M31.4578 44.3067H31.4381L26.577 42.9726L26.2659 39.4363H21.8872L22.4995 46.3988L31.4421 48.927H31.4677V44.3067H31.4578Z" fill="#EBEBEB"/>
<path d="M36.8406 37.0341L36.315 42.9686L31.446 44.3027V48.923L40.3944 46.4028L40.4594 45.6528L41.2194 37.0321H36.8406V37.0341Z" fill="white"/>
<path d="M31.45 23.817V28.2514H20.9088L20.8182 27.2553L20.6194 25.0071L20.515 23.817H31.45ZM31.4343 32.7897V37.224H26.6283L26.5436 36.228L26.3448 33.9798L26.2404 32.7897H31.4323H31.4343Z" fill="#EBEBEB"/>
</svg>
