<svg width="64" height="64" viewBox="0 0 64 64" fill="none" xmlns="http://www.w3.org/2000/svg">
<path d="M50.183 21.7212C48.3051 18.423 45.7579 15.8118 42.5407 13.8871C39.3229 11.9622 35.8102 11 31.9998 11C28.1899 11 24.676 11.9625 21.459 13.8871C18.2414 15.8117 15.6943 18.423 13.8164 21.7212C11.9388 25.0193 11 28.6209 11 32.5258C11 37.2165 12.335 41.4345 15.0058 45.1808C17.6763 48.9275 21.1262 51.52 25.3551 52.9587C25.8474 53.0524 26.2118 52.9865 26.4487 52.7628C26.6858 52.5387 26.8041 52.2582 26.8041 51.9222C26.8041 51.8662 26.7994 51.3618 26.7903 50.4087C26.781 49.4555 26.7766 48.624 26.7766 47.9145L26.1476 48.026C25.7466 48.1013 25.2408 48.1333 24.63 48.1242C24.0196 48.1155 23.3859 48.0499 22.7297 47.928C22.0733 47.8071 21.4628 47.5268 20.8976 47.0877C20.3328 46.6486 19.9318 46.0738 19.6948 45.3642L19.4213 44.7192C19.2391 44.2898 18.9522 43.8128 18.5602 43.2899C18.1682 42.7666 17.7718 42.4118 17.3708 42.2249L17.1793 42.0845C17.0518 41.9911 16.9334 41.8785 16.8239 41.7478C16.7146 41.6171 16.6327 41.4864 16.578 41.3554C16.5232 41.2244 16.5686 41.1169 16.7147 41.0325C16.8607 40.9482 17.1247 40.9073 17.5076 40.9073L18.0543 40.991C18.4189 41.0659 18.8699 41.2896 19.4078 41.6636C19.9455 42.0372 20.3875 42.523 20.7339 43.1207C21.1534 43.887 21.6587 44.4709 22.2515 44.8727C22.8437 45.2746 23.4408 45.4751 24.0423 45.4751C24.6437 45.4751 25.1632 45.4284 25.6009 45.3354C26.0381 45.242 26.4482 45.1015 26.8312 44.9148C26.9953 43.6623 27.442 42.7001 28.1709 42.0275C27.132 41.9156 26.1979 41.747 25.3682 41.5229C24.5391 41.2985 23.6822 40.9343 22.7982 40.4293C21.9138 39.9249 21.1801 39.2987 20.5969 38.5516C20.0137 37.8041 19.535 36.8228 19.1616 35.6085C18.788 34.3937 18.6012 32.9924 18.6012 31.4042C18.6012 29.1428 19.3214 27.2184 20.7615 25.63C20.0869 23.9298 20.1505 22.0239 20.9527 19.9124C21.4814 19.744 22.2654 19.8704 23.3043 20.2907C24.3434 20.7111 25.1042 21.0713 25.5875 21.37C26.0707 21.6685 26.4579 21.9215 26.7496 22.1267C28.4453 21.641 30.1951 21.3981 31.9996 21.3981C33.8041 21.3981 35.5544 21.641 37.2501 22.1267L38.2891 21.4543C38.9996 21.0056 39.8387 20.5945 40.8042 20.2208C41.7704 19.8472 42.5091 19.7443 43.0198 19.9127C43.8398 22.0243 43.9129 23.9301 43.2381 25.6303C44.6781 27.2187 45.3986 29.1435 45.3986 31.4045C45.3986 32.9927 45.211 34.3984 44.838 35.6225C44.4645 36.8469 43.9817 37.8272 43.3895 38.5657C42.7966 39.304 42.0582 39.9253 41.1742 40.4296C40.29 40.9342 39.4329 41.2984 38.6037 41.5228C37.7741 41.7472 36.8401 41.9159 35.8012 42.028C36.7487 42.8686 37.2226 44.1954 37.2226 46.0078V51.9214C37.2226 52.2574 37.3366 52.5379 37.5647 52.762C37.7925 52.9857 38.1523 53.0516 38.6446 52.9578C42.8741 51.5193 46.324 48.9267 48.9944 45.18C51.6645 41.4337 53 37.2157 53 32.525C52.999 28.6206 52.0597 25.0193 50.183 21.7212Z" fill="white"/>
</svg>
