<svg width="64" height="64" viewBox="0 0 64 64" fill="none" xmlns="http://www.w3.org/2000/svg">
<path d="M58.3039 26.032C58.3039 24.976 57.4719 24.112 56.4159 24.112C55.3919 24.112 54.5439 24.96 54.5439 26.032C54.5439 27.088 55.3759 27.952 56.4159 27.952C57.4719 27.968 58.3039 27.104 58.3039 26.032ZM56.4159 27.424C55.6959 27.424 55.1359 26.816 55.1359 26.032C55.1359 25.264 55.6959 24.656 56.4159 24.656C57.1519 24.656 57.7279 25.264 57.7279 26.032C57.7279 26.816 57.1519 27.424 56.4159 27.424Z" fill="white"/>
<path d="M56.928 26.192C57.024 26.16 57.232 26.016 57.232 25.712C57.232 25.344 56.992 25.12 56.592 25.12H55.744V26.928H56.304V26.32H56.448L56.704 26.928H57.312L56.976 26.304C56.944 26.208 56.928 26.192 56.928 26.192V26.192ZM56.448 25.936H56.304V25.504H56.448C56.576 25.504 56.64 25.568 56.64 25.712C56.656 25.856 56.576 25.936 56.448 25.936V25.936Z" fill="white"/>
<path d="M16.736 27.52C17.5312 27.52 18.176 26.8753 18.176 26.08C18.176 25.2847 17.5312 24.64 16.736 24.64C15.9407 24.64 15.296 25.2847 15.296 26.08C15.296 26.8753 15.9407 27.52 16.736 27.52Z" fill="white"/>
<path d="M18.24 28.464H11.648V28.032C11.648 27.184 12.496 27.168 12.928 27.168C13.424 27.168 13.648 27.216 13.648 27.216V24.88C13.648 24.88 13.2 24.816 12.592 24.816C11.216 24.816 8.67199 25.2 8.67199 28.112V28.48H7.47198V30.64H8.67199V35.2H7.55198V37.36H12.96V35.2H11.648V30.64H15.248V35.2H14.128V37.36H19.36V35.2H18.24V28.464ZM29.44 28.464H24.72V30.624H25.52L24.496 33.824C24.304 34.352 24.256 34.992 24.256 34.992H24.192C24.192 34.992 24.144 34.352 23.952 33.824L22.928 30.624H23.728V28.464H19.008V30.624H20L22.464 37.344H25.984L28.448 30.624H29.44V28.464ZM38.176 32.544C38.176 30.08 36.688 28.256 34.048 28.256C31.184 28.256 29.424 30.288 29.424 32.896C29.424 35.264 31.136 37.552 34.304 37.552C36.704 37.552 38.128 36.304 38.128 36.304L37.04 34.24C37.04 34.24 35.856 35.088 34.544 35.088C33.6 35.088 32.704 34.592 32.48 33.456H38.112C38.096 33.44 38.176 32.832 38.176 32.544ZM32.544 31.808C32.704 31.12 33.12 30.496 33.968 30.496C34.624 30.496 35.088 31.104 35.088 31.808H32.544ZM50.8 30.512H50.768C50.768 30.512 50.8 30.336 50.8 30.064V29.6C50.8 28.784 50.352 28.464 49.536 28.464H46.736V30.624H47.568C47.808 30.624 47.952 30.768 47.952 31.008V35.2H46.752V37.36H52.144V35.2H50.944V33.904C50.944 32.288 51.744 31.232 53.392 31.232C53.76 31.232 54 31.28 54 31.28V28.352C54 28.352 53.824 28.32 53.648 28.32C52.304 28.304 51.184 29.296 50.8 30.512ZM42.912 30.512H42.88C42.88 30.512 42.912 30.336 42.912 30.064V29.6C42.912 28.784 42.464 28.464 41.648 28.464H38.848V30.624H39.68C39.92 30.624 40.064 30.768 40.064 31.008V35.2H38.864V37.36H44.256V35.2H43.056V33.904C43.056 32.288 43.856 31.232 45.504 31.232C45.872 31.232 46.112 31.28 46.112 31.28V28.352C46.112 28.352 45.936 28.32 45.76 28.32C44.4 28.304 43.28 29.296 42.912 30.512V30.512Z" fill="white"/>
</svg>
