<svg width="64" height="64" viewBox="0 0 64 64" fill="none" xmlns="http://www.w3.org/2000/svg">
<rect width="64" height="64" fill="#FBF0FB"/>
<path d="M46.4339 34.2268C45.0354 34.2347 43.8243 34.5708 42.8086 35.0712C42.4336 34.3286 42.0585 33.6796 41.9961 33.195C41.9258 32.6321 41.8398 32.2881 41.9258 31.6158C42.0117 30.9434 42.4023 29.9897 42.4023 29.9115C42.3944 29.8412 42.3163 29.4972 41.5116 29.4894C40.7069 29.4816 40.0115 29.6457 39.9334 29.8568C39.8552 30.0679 39.699 30.5526 39.5974 31.0529C39.4567 31.7877 37.9879 34.391 37.1519 35.7591C36.8784 35.2275 36.644 34.7584 36.597 34.3831C36.5268 33.8203 36.4408 33.4763 36.5268 32.804C36.6127 32.1316 37.0034 31.178 37.0034 31.0998C36.9956 31.0294 36.9175 30.6855 36.1128 30.6776C35.3079 30.6698 34.6127 30.834 34.5345 31.0451C34.4564 31.2561 34.3704 31.7565 34.1986 32.2412C34.0344 32.7259 32.0811 37.0725 31.5732 38.206C31.3154 38.7845 31.0889 39.2458 30.9248 39.5585C30.7607 39.8712 30.9169 39.5819 30.9013 39.6132C30.7607 39.879 30.6825 40.0275 30.6825 40.0275V40.0354C30.5732 40.2308 30.456 40.4184 30.4012 40.4184C30.3621 40.4184 30.284 39.8946 30.4168 39.1755C30.7059 37.6666 31.4091 35.3136 31.4014 35.2276C31.4014 35.1885 31.5341 34.7741 30.9481 34.5631C30.3778 34.352 30.1747 34.7038 30.1277 34.7038C30.0808 34.7038 30.0418 34.8289 30.0418 34.8289C30.0418 34.8289 30.6747 32.1788 28.8307 32.1788C27.6744 32.1788 26.0805 33.4374 25.2914 34.5866C24.7913 34.8602 23.7287 35.4387 22.6036 36.0563C22.1739 36.2908 21.7286 36.541 21.3066 36.7677L21.2208 36.6738C18.9862 34.2894 14.853 32.6008 15.0249 29.3956C15.0874 28.2307 15.4937 25.1584 22.9632 21.4372C29.0809 18.3884 33.9798 19.2248 34.8313 21.0854C36.0424 23.7434 32.2139 28.6842 25.8541 29.3956C23.432 29.6692 22.1584 28.7311 21.8381 28.3793C21.5021 28.0118 21.4553 27.9962 21.3302 28.0666C21.1271 28.176 21.2521 28.5044 21.3302 28.6998C21.5178 29.1923 22.2991 30.0679 23.6273 30.5057C24.7914 30.8887 27.6355 31.0998 31.0733 29.7708C34.9252 28.2776 37.9333 24.1343 37.0504 20.6711C36.1518 17.1454 30.3076 15.9884 24.7837 17.9506C21.4942 19.1232 17.9314 20.9525 15.3687 23.3525C12.3216 26.1982 11.8371 28.6842 12.0403 29.7161C12.7514 33.3982 17.822 35.7982 19.8535 37.5728C19.7519 37.6274 19.6581 37.6822 19.5722 37.7291C18.5565 38.2294 14.689 40.2542 13.7201 42.3962C12.6263 44.8196 13.892 46.563 14.7358 46.7976C17.3454 47.5246 20.0175 46.2191 21.463 44.0692C22.9005 41.9194 22.7287 39.1285 22.0646 37.8542L22.0411 37.8073L22.838 37.3383C23.3538 37.0334 23.8616 36.7519 24.3069 36.5095C24.057 37.1896 23.8772 37.9949 23.7835 39.1675C23.6741 40.5435 24.2367 42.3258 24.9789 43.0294C25.3071 43.3342 25.6977 43.3421 25.9399 43.3421C26.7994 43.3421 27.1901 42.6306 27.6198 41.7786C28.1511 40.7388 28.6199 39.5349 28.6199 39.5349C28.6199 39.5349 28.0339 42.7949 29.6356 42.7949C30.2216 42.7949 30.8076 42.0366 31.0732 41.6457V41.6535C31.0732 41.6535 31.0888 41.63 31.1201 41.5753C31.1529 41.5268 31.1841 41.4773 31.2138 41.4269V41.4112C31.4482 41.0047 31.9717 40.0744 32.753 38.5343C33.7609 36.5487 34.7298 34.0627 34.7298 34.0627C34.7298 34.0627 34.8235 34.6724 35.1126 35.6731C35.2844 36.2673 35.6595 36.9161 35.9485 37.5493C35.7142 37.8777 35.5735 38.0654 35.5735 38.0654L35.5813 38.0732C35.3939 38.3234 35.1829 38.5892 34.9642 38.8549C34.1672 39.8087 33.214 40.8954 33.089 41.2081C32.9406 41.5755 32.9718 41.8491 33.2609 42.0681C33.4718 42.2244 33.8469 42.2556 34.2454 42.2244C34.9642 42.1774 35.4642 41.9977 35.7142 41.8882C36.1049 41.7475 36.5502 41.5364 36.98 41.2237C37.7613 40.6453 38.2379 39.8244 38.191 38.7299C38.1676 38.128 37.9722 37.5338 37.73 36.971C37.8004 36.8694 37.8707 36.7676 37.941 36.6583C39.1755 34.8523 40.1287 32.8667 40.1287 32.8667C40.1287 32.8667 40.2224 33.4765 40.5115 34.4772C40.6599 34.9853 40.9569 35.5404 41.2225 36.0877C40.0662 37.0336 39.3395 38.1281 39.0895 38.8473C38.6286 40.1763 38.988 40.7782 39.6677 40.919C39.9723 40.9815 40.41 40.8408 40.738 40.7001C41.1443 40.5672 41.6365 40.3404 42.0898 40.0043C42.8711 39.4258 43.6212 38.6206 43.5821 37.5339C43.5587 37.0336 43.4258 36.5411 43.2461 36.072C44.2306 35.6655 45.5041 35.431 47.1215 35.6264C50.5983 36.0329 51.2859 38.2062 51.1532 39.1131C51.0203 40.02 50.2937 40.5203 50.0514 40.6766C49.8092 40.8251 49.7311 40.8799 49.7545 40.9893C49.7858 41.1536 49.8952 41.1457 50.1061 41.1145C50.3952 41.0675 51.9344 40.3718 51.9969 38.6989C52.0907 36.5488 50.0514 34.2035 46.4339 34.2268V34.2268ZM19.6191 43.2718C18.4705 44.5305 16.8532 45.0073 16.1657 44.6008C15.4234 44.1708 15.7124 42.3181 17.1267 40.9813C17.9861 40.1682 19.1034 39.4177 19.8378 38.9565C20.0019 38.8549 20.2519 38.7064 20.5488 38.5265C20.5957 38.4953 20.627 38.4796 20.627 38.4796C20.6817 38.4484 20.7442 38.4093 20.8067 38.3702C21.3302 40.2777 20.8301 41.9506 19.6191 43.2718V43.2718ZM28.0182 37.5571C27.6198 38.5343 26.776 41.0438 26.2681 40.9031C25.8305 40.7858 25.5649 38.8861 26.1821 37.0099C26.4946 36.0639 27.1587 34.9382 27.5494 34.5004C28.1823 33.7968 28.8698 33.5623 29.0418 33.8515C29.2449 34.2268 28.2683 36.9474 28.0182 37.5571ZM34.9485 40.8718C34.7767 40.9579 34.6204 41.0203 34.5501 40.9735C34.4954 40.9423 34.6203 40.825 34.6203 40.825C34.6203 40.825 35.4876 39.8947 35.8314 39.4647C36.0267 39.2146 36.2611 38.9254 36.5111 38.597V38.6908C36.5112 39.8164 35.433 40.5669 34.9485 40.8718ZM40.2927 39.6523C40.1677 39.5585 40.1834 39.2692 40.6052 38.3624C40.7694 38.0028 41.1443 37.4008 41.7928 36.8301C41.8709 37.0646 41.9179 37.2913 41.91 37.5024C41.9023 38.9096 40.9022 39.4334 40.2927 39.6523Z" fill="#EA8EE6"/>
</svg>
